<?xml version="1.0" encoding="utf-8"?>
<!-- Generator: Adobe Illustrator 22.1.0, SVG Export Plug-In . SVG Version: 6.00 Build 0)  -->
<svg version="1.1" id="Layer_1" xmlns="http://www.w3.org/2000/svg" xmlns:xlink="http://www.w3.org/1999/xlink" x="0px" y="0px"
	 viewBox="0 0 24 24" style="enable-background:new 0 0 24 24;" xml:space="preserve">
<style type="text/css">
	.st0{fill-rule:evenodd;clip-rule:evenodd;}
	.st1{clip-path:url(#SVGID_3_);}
	.st2{clip-path:url(#SVGID_4_);fill:#FFFFFF;}
	.st3{clip-path:url(#SVGID_7_);}
	.st4{clip-path:url(#SVGID_8_);fill:#FFFFFF;}
	.st5{clip-path:url(#SVGID_11_);}
	.st6{clip-path:url(#SVGID_12_);fill:#FFFFFF;}
</style>
<g>
	<path class="st0" d="M12,22c5.5,0,10-4.5,10-10S17.5,2,12,2S2,6.5,2,12S6.5,22,12,22L12,22z M12,22"/>
	<g>
		<defs>
			<rect id="SVGID_1_" x="2" y="2" width="20" height="20"/>
		</defs>
		<defs>
			<path id="SVGID_2_" d="M14.7,11.3c-0.7,0-1.1,0.6-1.1,1.4c0,0.8,0.4,1.4,1.1,1.4c0.8,0,1.1-0.7,1.1-1.4
				C15.8,12,15.4,11.3,14.7,11.3 M12.8,9.2h0.9v2h0c0.2-0.4,0.7-0.6,1.2-0.6c1.2,0,1.8,1,1.8,2.1c0,1.1-0.5,2.1-1.7,2.1
				c-0.5,0-1.1-0.1-1.3-0.7h0v0.5h-0.8L12.8,9.2L12.8,9.2"/>
		</defs>
		<clipPath id="SVGID_3_">
			<use xlink:href="#SVGID_1_"  style="overflow:visible;"/>
		</clipPath>
		<clipPath id="SVGID_4_" class="st1">
			<use xlink:href="#SVGID_2_"  style="overflow:visible;"/>
		</clipPath>
		<rect x="12.6" y="9" class="st2" width="4.2" height="6"/>
	</g>
	<g>
		<defs>
			<rect id="SVGID_5_" x="2" y="2" width="20" height="20"/>
		</defs>
		<defs>
			<path id="SVGID_6_" d="M19.7,12.1c-0.1-0.5-0.4-0.7-0.9-0.7c-0.4,0-1.1,0.2-1.1,1.5c0,0.7,0.3,1.4,1,1.4c0.5,0,0.8-0.3,0.9-0.9
				h0.9c-0.2,1-0.8,1.6-1.8,1.6c-1.2,0-1.9-0.9-1.9-2.1c0-1.2,0.6-2.1,1.9-2.1c0.9,0,1.7,0.5,1.7,1.4L19.7,12.1L19.7,12.1"/>
		</defs>
		<clipPath id="SVGID_7_">
			<use xlink:href="#SVGID_5_"  style="overflow:visible;"/>
		</clipPath>
		<clipPath id="SVGID_8_" class="st3">
			<use xlink:href="#SVGID_6_"  style="overflow:visible;"/>
		</clipPath>
		<rect x="16.8" y="10.4" class="st4" width="4" height="4.6"/>
	</g>
	<g>
		<defs>
			<rect id="SVGID_9_" x="2" y="2" width="20" height="20"/>
		</defs>
		<defs>
			<polyline id="SVGID_10_" points="9.8,14.7 3.4,14.7 6.4,9.2 12.8,9.2 9.8,14.7 			"/>
		</defs>
		<clipPath id="SVGID_11_">
			<use xlink:href="#SVGID_9_"  style="overflow:visible;"/>
		</clipPath>
		<clipPath id="SVGID_12_" class="st5">
			<use xlink:href="#SVGID_10_"  style="overflow:visible;"/>
		</clipPath>
		<rect x="3.2" y="9" class="st6" width="9.8" height="5.9"/>
	</g>
</g>
</svg>
